# xmcd CD database file
#
# Track frame offsets:
#	150
#	20131
#	37054
#	52340
#	65076
#	81216
#	96446
#	111530
#	128901
#	147057
#	163917
#	181426
#	198623
#	216980
#	227745
#
# Disc length: 3285 seconds
#
# Revision: 0
# Processed by: cddbd v1.4PL0 Copyright (c) Steve Scherf et al.
# Submitted via: CDex 1.40Release
#
DISCID=f40cd30f
DTITLE=Jared "Pete" Gile - Modern Day Mountain Man
DYEAR=2003
DGENRE=Country
TTITLE0=I'd Do It All Again
TTITLE1=Back 40 Lover
TTITLE2=Love Killed A Man
TTITLE3=Texas Style
TTITLE4=Drunk In Luckenbach
TTITLE5=Watching Fireworks Alone
TTITLE6=Til I Find Myself (with Mike McClure)
TTITLE7=Runnin Low On Angels
TTITLE8=Circle The Sun
TTITLE9=Sugar Daddy
TTITLE10=My Little One And You
TTITLE11=Modern Day Mountain Man
TTITLE12=A Heart That Hurts
TTITLE13=Just How Drunk
TTITLE14=Love Finds Its Way Home
EXTD=YEAR: 2003 ID3G: 2
EXTT0=
EXTT1=
EXTT2=
EXTT3=
EXTT4=
EXTT5=
EXTT6=
EXTT7=
EXTT8=
EXTT9=
EXTT10=
EXTT11=
EXTT12=
EXTT13=
EXTT14=
PLAYORDER=
